<?xml version="1.0" encoding="UTF-8"?>
<svg width="40px" height="36px" viewBox="0 0 40 36" version="1.1" xmlns="http://www.w3.org/2000/svg" xmlns:xlink="http://www.w3.org/1999/xlink">
    <!-- Generator: Sketch 64 (93537) - https://sketch.com -->
    <title>logo</title>
    <desc>Created with Sketch.</desc>
    <g id="Page-1" stroke="none" stroke-width="1" fill="none" fill-rule="evenodd">
        <g id="W-Copy" transform="translate(-276.000000, -218.000000)" fill="#000000">
            <path d="M308,248.022335 L301.931969,254 C300.83758,253.832504 300,252.900172 300,251.775127 L300,247.271777 C300,243.126557 296.588836,239.766193 292.380952,239.766193 L292,239.766193 L292,218 L297.714286,218 C298.976651,218 300,219.008109 300,220.251675 L300,232.260609 C300,236.405829 303.411164,239.766193 307.619048,239.766193 L308,239.766193 L308,248.022335 Z M292,248.022335 L285.931969,254 C284.83758,253.832504 284,252.900172 284,251.775127 L284,247.271777 C284,243.126557 280.588836,239.766193 276.380952,239.766193 L276,239.766193 L276,218 L281.714286,218 C282.976651,218 284,219.008109 284,220.251675 L284,232.260609 C284,236.405829 287.411164,239.766193 291.619048,239.766193 L292,239.766193 L292,248.022335 Z M308,220.251675 C308,219.008109 309.023349,218 310.285714,218 L316,218 L316,239.766193 L315.619048,239.766193 C311.411164,239.766193 308,236.405829 308,232.260609 L308,220.251675 Z" id="logo"></path>
        </g>
    </g>
</svg>